<svg xmlns="http://www.w3.org/2000/svg" width="758" height="680" overflow="hidden"><defs><clipPath id="a"><path d="M-1 38h758v680H-1z"/></clipPath></defs><g fill-rule="evenodd" clip-path="url(#a)" transform="translate(1 -38)"><path fill="#8DC63F" d="M283.674 374.805c52.605 0 90.49-34.104 105.594-61.055 4.351-8.303 22.526-35.126 62.972-35.126 39.166-.511 73.852 30.272 71.42 71.274-2.944 53.136-49.533 91.455-70.78 103.717-35.454 20.31-80.635 37.553-120.697 40.364h8.319c17.407 0 34.303.383 50.814 1.021 58.364-4.981 103.546-27.845 138.232-63.099C572.937 387.706 597 329.461 597 266.617 596.872 142.845 499.854 39 377.62 39 272.922 39 164 121.386 164 252.694c-.128 65.526 53.629 122.111 119.674 122.111Z"/><path fill="#0A8536" fill-opacity="0.301961" d="M489.465 70.044C482.56 66.845 363.644 8.112 260.712 96.66c-100.375 86.373-84.392 222.779-40.278 258.736 18.413 12.028 40.278 19.194 63.55 19.194 52.553 0 90.401-34.166 105.489-61.165 4.348-8.318 22.505-35.189 62.91-35.189 39.128-.512 73.779 30.326 71.35 71.401-2.941 53.232-49.484 91.62-70.71 103.904-35.419 20.346-80.556 37.62-120.578 40.435h8.311c17.39 0 34.269.384 50.763 1.024 58.307-4.99 103.444-27.895 138.096-63.212C572.961 387.514 597 329.164 597 266.207c-.128-82.406-42.963-155.983-107.535-196.163Z"/><path fill="#EF3F6B" d="M546.695 121.43c-1.408-1.792-2.816-3.456-4.224-5.119C516.231 84.316 471.046 60 406.277 60c-96.002 0-195.971 72.052-202.115 202.719-3.072 63.605 38.144 104.174 84.609 111.725 13.824-.64 26.624-3.583 38.016-8.063a133.786 133.786 0 0 0 19.201-9.47c20.224-12.158 34.944-28.923 43.265-43.513 4.352-8.318 22.528-35.194 62.977-35.194 39.168-.512 73.857 30.331 71.425 71.412-2.944 53.239-49.537 91.633-70.785 103.919-35.457 20.348-80.642 37.626-120.706 40.441h8.32c17.408 0 34.304.384 50.817 1.024 58.369-4.991 103.553-27.899 138.242-63.221C572.936 387.498 597 329.14 597 266.174c-.256-54.519-18.944-105.071-50.305-144.744Z"/><path fill="#C0131A" fill-opacity="0.301961" d="M558.86 138.598c-16.255-21.867-50.94-35.423-74.873-38.875-82.168-12.02-144.37 15.857-195.31 81.715-32.636 42.329-39.292 90.284-26.749 131.333 15.487 50.129 64.378 50.896 84.088 44.246 20.222-12.148 34.941-28.9 43.26-43.479 4.351-8.312 22.526-35.167 62.97-35.167 39.164-.511 73.849 30.308 71.417 71.357-2.944 53.198-49.531 91.562-70.777 103.839-35.453 20.333-80.633 37.597-120.693 40.41h8.319c17.407 0 34.301.384 50.812 1.023 58.362-4.987 103.542-27.878 138.226-63.173C572.938 387.581 597 329.268 597 266.351c0-29.413-5.503-56.14-13.695-79.03-1.664-4.476-3.455-9.08-5.247-13.172a137.01 137.01 0 0 0-3.968-8.696c-2.56-5.499-5.375-10.614-8.063-15.345-2.432-4.22-4.735-8.057-7.167-11.51Z"/><path fill="#009DA5" d="M589.058 206.799c-13.451-39.585-51.368-76.999-109.014-85.426-71.736-10.471-126.051 13.79-170.502 71.252-28.566 36.903-34.33 78.659-23.314 114.284 16.141 51.971 73.658 42.905 80.063 34.86 9.992-9.066 17.806-18.898 22.802-27.964 4.355-8.3 22.546-35.115 63.025-35.115 39.199-.511 73.914 30.263 71.48 71.252-2.946 53.12-49.574 91.427-70.839 103.686-35.484 20.303-80.704 37.541-120.799 40.351h8.327c17.421 0 34.33.383 50.855 1.021 58.414-4.98 103.634-27.837 138.349-63.08C572.917 387.739 597 329.511 597 266.686c-.128-20.813-3.331-44.564-7.942-59.887Z"/><path fill="#B61F79" d="M524.826 246.492c-68.041-40.949-118.623 28.792-134.798 65.39 9.756-15.868 29.527-33.655 62.392-33.655 39.284-.512 74.075 30.328 71.636 71.405-2.953 53.233-49.683 91.623-70.994 103.907-35.561 20.347-80.879 37.622-121.062 40.437H340.345c17.459 0 34.405.384 50.966 1.024 58.541-4.991 103.859-27.896 138.65-63.215a119.52 119.52 0 0 0 5.52-5.886c18.487-17.787 79.852-124.766-10.655-179.407Z"/><path fill="#2E3092" fill-opacity="0.2" d="M218.816 326.631C164.384 301.422 167.202 219.782 167.458 213c-.512 2.815-.896 5.63-1.281 8.446l-.384 2.687c-.256 2.303-.512 4.734-.769 7.038a1104.53 1104.53 0 0 0-.384 5.246 987.205 987.205 0 0 0-.384 5.247c-.128 3.71-.256 7.421-.256 11.132C164 318.313 217.791 375 283.877 375c1.665 0 3.458 0 5.123-.128-28.304-4.606-54.559-21.497-70.184-48.241Z"/><path fill="#2E3092" fill-opacity="0.2" d="M300.823 331.723c-14.341 2.681-31.5 3.83-52.116 2.554-11.396-.766-21.256-3.32-29.707-7.277 15.622 26.681 41.872 43.532 70.171 48h.256c13.701-.638 26.378-3.574 37.902-8.043a133.981 133.981 0 0 0 19.208-9.446c2.433-1.532 4.866-3.064 7.299-4.724 0 0 .128-.127.256-.127a115.12 115.12 0 0 0 6.274-4.724c.256-.127.64-.51.896-.766 1.665-1.404 3.202-2.681 4.738-4.085-8.195 6.255-43.28 11.362-65.177-11.362Z"/><path fill="#2E3092" fill-opacity="0.2" d="M524.727 246.782c83.551 50.584 37.733 145.973 15.53 174.218.256-.385.513-.642.77-1.027 2.952-3.466 5.903-7.061 8.599-10.656l.128-.128c7.444-10.528 27.979-43.779 34.267-98.471 10.396-89.356-63.786-139.04-139.508-110.796-58.909 21.954-74.695 76.902-74.695 76.902-6.032 19.258-22.588 45.834-69.818 54.821 21.947 22.852 57.112 17.717 65.198 11.554.128-.128 1.027-.899 1.155-1.155 1.155-1.027 3.465-3.338 3.594-3.467 3.208-3.081 6.032-6.291 8.599-9.5.641-.77 1.411-1.669 1.925-2.439.513-.642 1.026-1.284 1.54-2.055.513-.642 1.411-1.797 2.182-3.081.898-1.284 1.668-2.568 1.796-2.696a245.621 245.621 0 0 0 2.952-4.879c.257-.385.514-1.027.899-1.54 16.299-36.718 66.866-106.816 134.887-65.605Z"/><path fill="#262161" fill-opacity="0.2" d="M482.354 264.753c-61.654-11.768-88.187 39.27-91.904 46.945-.129.256-.257.64-.513 1.023 9.742-15.861 29.481-33.641 62.295-33.641 39.223-.512 73.959 30.316 71.524 71.376-2.948 53.213-49.605 91.587-70.883 103.867C417.367 474.662 372.12 491.93 332 494.744h8.332c7.562 0 14.868.128 22.175.256 24.097-4.861 75.241-17.652 116.643-45.154 88.187-58.969 69.985-172.429 3.204-185.093Z"/><path fill="#B61F79" d="M415.762 554.262c-137.094-25.205-271.116-27.507-271.116-27.507s115.589-13.562 284.812 13.049c84.1 13.306 144.135 33.265 174.984 45.035C686.749 558.995 756 556.564 756 556.564c-39.169-13.177-183.944-62.178-415.25-62.562C128.518 493.618 0 544.922 0 544.922s131.077 18.935 248.971 79.834C337.038 670.174 380.56 717 380.56 717s13.953-19.191 53.123-46.954c-19.329-16.504-50.179-38.509-94.98-59.235-97.157-44.651-243.339-65.377-243.339-65.377s142.342 4.989 247.05 38.381c71.94 23.029 113.413 44.395 135.302 57.957 17.921-10.363 38.658-21.238 62.723-32.369 6.912-3.198 13.825-6.141 20.609-8.955-22.785-12.667-67.459-31.857-145.286-46.186Z"/><path fill="#009DA5" d="M749.987 554.848c-.128 0-325.457-61.326-604.987-27.852 0 0 115.522-13.543 284.647 13.032 84.051 13.287 144.051 33.218 174.882 44.972 61.279-19.292 115.266-25.425 138.806-27.341 8.06-.639 12.665-.767 12.665-.767-1.791-.638-3.838-1.277-6.013-2.044ZM95 545.743s142.439 4.985 247.218 38.349c71.988 23.01 113.49 44.358 135.394 57.908 17.933-10.354 38.684-21.22 62.765-32.341 6.917-3.196 13.834-6.136 20.623-8.948 0 .127-276.039-68.391-466-54.968ZM249.099 624.73C337.257 670.161 380.823 717 380.823 717S394.79 697.804 434 670.033c0 0-213.348-107.884-434-125.032-.128-.128 131.084 18.94 249.099 79.729Z"/><path fill="#2E3092" fill-opacity="0.2" d="M524.826 246.492c-68.041-40.949-118.623 28.792-134.798 65.39 9.756-15.868 29.527-33.655 62.392-33.655 39.284-.512 74.075 30.328 71.636 71.405-2.953 53.233-49.683 91.623-70.994 103.907-35.561 20.347-80.879 37.622-121.062 40.437H340.345c17.459 0 34.405.384 50.966 1.024 58.541-4.991 103.859-27.896 138.65-63.215a119.52 119.52 0 0 0 5.52-5.886c18.487-17.787 79.852-124.766-10.655-179.407Z"/></g></svg>