<svg xmlns="http://www.w3.org/2000/svg" width="751" height="674" overflow="hidden"><defs><clipPath id="a"><path d="M-1 44h751v674H-1z"/></clipPath></defs><g fill-rule="evenodd" clip-path="url(#a)" transform="translate(1 -44)"><path fill="#E6E7E8" d="M281.717 378.761c52.164 0 89.577-33.862 104.687-60.7 4.317-8.286 22.304-34.943 62.416-34.943 38.673-.541 73.209 30.08 70.691 70.787-2.878 52.775-49.106 90.96-70.151 103.028-35.076 20.173-79.864 37.285-119.617 40.167h8.275c17.268 0 33.996.36 50.364.9 57.74-4.863 102.529-27.738 136.885-62.681C568.257 391.369 592 333.551 592 271.05 591.82 148.208 495.767 45 374.712 45 270.925 45 163 126.774 163 257.361c0 65.203 53.243 121.4 118.717 121.4Z"/><path fill="#C6C8CA" fill-opacity="0.301961" d="M485.186 76.965c-7.025-3.24-125.007-61.563-227.139 26.281-99.609 85.683-83.578 220.868-39.807 256.509 18.373 11.88 39.807 19.081 63.044 19.081 52.236 0 89.702-33.842 104.833-60.663 4.323-8.28 22.335-34.921 62.503-34.921 38.727-.54 73.311 30.061 70.789 70.743-2.882 52.742-49.174 90.903-70.248 102.964-35.125 20.16-79.976 37.261-119.784 40.141h8.286c17.292 0 34.044.36 50.435.9 57.82-4.86 102.672-27.721 137.075-62.642C568.223 391.436 592 333.654 592 271.192c-.18-81.543-42.69-154.446-106.814-194.227Z"/><path fill="#BCBEC0" d="M542.234 127.98c-1.443-1.798-2.705-3.417-4.148-5.216C512.121 91.104 467.223 67 402.851 67c-95.206 0-194.558 71.414-200.689 200.93-3.065 62.959 37.866 103.073 84.026 110.628 21.818-.9 40.931-7.735 56.799-17.269 20.015-12.052 34.8-28.602 42.915-42.992 4.327-8.275 22.358-34.898 62.568-34.898 38.768-.539 73.388 30.041 70.864 70.695-2.885 52.705-49.226 90.84-70.323 102.893-35.161 20.147-80.059 37.236-119.908 40.114h8.294c17.31 0 34.079.359 50.488.899 57.881-4.857 102.779-27.702 137.219-62.599C568.199 391.509 592 333.767 592 271.347c0-53.965-18.572-104.152-49.766-143.367Z"/><path fill="#A7A9AC" fill-opacity="0.301961" d="M554.188 144.22c-16.205-21.785-50.416-35.108-74.184-38.529-81.386-11.883-143.145 15.663-193.561 81.198-32.411 41.95-39.073 89.481-26.469 130.35 15.305 49.691 63.741 50.411 83.367 43.93 19.986-12.063 34.751-28.627 42.853-43.03 4.322-8.282 22.328-34.928 62.48-34.928 38.713-.54 73.284 30.067 70.763 70.756-2.881 52.752-49.156 90.921-70.222 102.984-35.112 20.164-79.946 37.268-119.739 40.149h8.283c17.285 0 34.031.36 50.416.9 57.799-4.861 102.633-27.726 137.024-62.654C568.232 391.416 592 333.623 592 271.148c0-54.012-21.967-99.202-37.812-126.928Z"/><path fill="#D1D3D4" d="M584.08 211.249c-13.319-39.383-50.937-76.428-107.995-84.88-71.097-10.43-124.914 13.667-168.832 70.673-28.259 36.686-34.019 78.047-23.039 113.474 16.019 51.611 72.896 42.619 79.376 34.527 9.9-8.992 17.639-18.702 22.679-27.694 4.32-8.272 22.319-34.887 62.457-34.887 38.699-.54 73.257 30.032 70.737 70.673-2.88 52.691-49.138 90.815-70.197 102.864-35.098 20.141-79.916 37.225-119.694 40.102h8.279c17.279 0 34.019.36 50.398.899 57.777-4.855 102.595-27.694 136.974-62.581C568.241 390.54 592 332.815 592 270.413c-.18-20.321-3.24-43.878-7.92-59.164Z"/><path fill="#BCBEC0" d="M519.482 251.445c-67.028-40.732-116.985 28.476-132.978 64.883 9.524-15.68 29.111-33.343 61.457-33.343 38.636-.541 73.138 30.099 70.622 70.831-2.875 52.807-49.058 91.016-70.083 103.092-35.041 20.185-79.786 37.307-119.5 40.191h8.266c17.251 0 33.963.36 50.316.901 57.684-4.866 102.429-27.755 136.751-62.72l5.391-5.948c18.51-17.302 79.068-123.638-10.242-177.887Z"/><path fill="#808284" fill-opacity="0.2" d="M217.07 330.287C163.537 305.354 166.044 224.816 166.402 218c-.358 2.87-.895 5.561-1.254 8.431-.179.896-.179 1.793-.358 2.511-.358 2.332-.537 4.663-.716 6.995-.179 1.615-.358 3.408-.358 5.202-.179 1.794-.358 3.408-.358 5.202-.179 3.587-.358 7.354-.358 10.942C163 322.036 215.996 378 280.987 378c1.79 0 3.402-.179 5.013-.179-27.572-4.664-53.533-21.166-68.93-47.534Z"/><path fill="#939598" fill-opacity="0.2" d="M297.575 335.611c-14.176 2.661-31.045 3.725-51.324 2.483-11.305-.709-20.996-3.192-29.251-7.094 15.433 26.072 41.454 42.566 69.27 47h.179c21.714-.887 40.557-7.626 56.349-17.026 2.513-1.419 4.846-3.016 7.179-4.612l.179-.177a81.448 81.448 0 0 0 6.281-4.611c.179-.178.538-.355.718-.532 1.615-1.419 3.23-2.661 4.845-4.08-8.255 5.853-42.89 10.819-64.425-11.351Z"/><path fill="#C2C4C6" d="M520.267 251.105C603.009 301.091 557.582 395.13 535.59 423c.36-.36.54-.719.901-.899a242.325 242.325 0 0 0 8.472-10.609s0-.179.181-.179c7.39-10.429 27.76-43.154 33.889-97.096 10.276-88.285-63.092-137.372-138.083-109.322-58.406 21.756-73.908 75.878-73.908 75.878-5.949 19.06-22.353 45.311-69.042 54.122 21.812 22.655 56.603 17.441 64.535 11.328.18-.18.36-.18.541-.36l.18-.18c.18-.18.361-.18.361-.359 1.081-1.079 2.343-2.158 3.425-3.237.18 0 .18-.18.36-.36 3.065-3.056 5.949-6.113 8.473-9.349.721-.899 1.261-1.619 1.982-2.518.541-.719 1.082-1.258 1.443-1.978 1.081-1.438 1.982-2.697 2.884-4.135.18-.18.36-.36.36-.719.181-.36.361-.72.721-1.079 1.082-1.619 2.164-3.237 3.065-4.855.18-.539.541-1.079.901-1.618 15.683-35.782 65.797-105.007 133.036-64.371Z"/><path fill-opacity="0.2" d="M478.111 268.748c-61.049-11.701-87.341 38.882-90.943 46.622-.18.361-.36.721-.54.901 9.544-15.661 29.174-33.302 61.589-33.302 38.719-.54 73.295 30.061 70.774 70.743-2.881 52.743-49.164 90.905-70.234 102.966C413.641 476.839 368.799 493.94 329 496.82H337.284c7.383 0 14.767.18 21.97.18 23.772-4.86 74.556-17.461 115.436-44.822 87.342-58.323 69.333-170.829 3.421-183.43Z"/><path fill="#BCBEC0" d="M411.932 556.881c-135.871-24.995-268.683-27.333-268.683-27.333s114.636-13.487 282.18 12.947c83.322 13.127 142.89 32.907 173.483 44.596C680.435 561.376 749 559.039 749 559.039c-38.872-13.127-182.301-61.499-411.572-62.038C127.413 496.821 0 547.53 0 547.53s129.932 18.881 246.727 79.121C334.009 671.606 377.02 718 377.02 718s13.856-19.061 52.548-46.573c-19.256-16.364-49.669-38.123-94.12-58.622C239.169 568.569 94.48 548.07 94.48 548.07s141.09 5.034 244.748 38.122c71.264 22.837 112.296 43.876 134.071 57.362 17.636-10.25 38.332-21.039 62.267-32.008 6.838-3.057 13.677-6.114 20.515-8.811-22.855-12.587-66.945-31.648-144.149-45.854Z"/><path fill="#E6E7E8" d="M742.881 556.886S420.353 495.569 143 528.949c0 0 114.649-13.606 282.212 13.061 83.332 13.243 142.906 33.198 173.503 44.99 60.654-19.23 114.289-25.579 137.686-27.393 8.1-.726 12.599-.726 12.599-.726-1.8-.544-3.96-1.27-6.119-1.995ZM94 547.723s141.212 5.024 244.959 38.039C410.285 608.55 451.352 629.543 473.146 643c17.652-10.227 38.365-20.993 62.321-31.938 6.844-3.051 13.689-6.101 20.533-8.793-.18 0-273.778-67.824-462-54.546ZM246.975 626.367C334.344 671.462 377.398 718 377.398 718s13.871-19.12 52.602-46.718c0 0-211.307-107.146-430-124.282 0 0 130.063 18.94 246.975 79.367Z"/><path fill-opacity="0.2" d="M519.482 251.445c-67.028-40.732-116.985 28.476-132.978 64.883 9.524-15.68 29.111-33.343 61.457-33.343 38.636-.541 73.138 30.099 70.622 70.831-2.875 52.807-49.058 91.016-70.083 103.092-35.041 20.185-79.786 37.307-119.5 40.191h8.266c17.251 0 33.963.36 50.316.901 57.684-4.866 102.429-27.755 136.751-62.72l5.391-5.948c18.51-17.302 79.068-123.638-10.242-177.887Z"/></g></svg>